# xmcd
#
# Track frame offsets: 
#        150
#        16177
#        27782
#        40350
#        51172
#        65242
#        76975
#        92690
#        102362
#        114867
#        128657
#        141562
#
# Disc length: 2047 seconds
#
# Revision: 0
# Processed by: cddbd v1.5.2PL0 Copyright (c) Steve Scherf et al.
# Submitted via: ExactAudioCopy v1.0b4
#
DISCID=9d07fd0c
DTITLE=Darrell Banks - Here To Stay
DYEAR=1969
DGENRE=Soul
TTITLE0=Just Because Your Love Is Gone
TTITLE1=Forgive Me
TTITLE2=Only The Strong Survive
TTITLE3=Don't Know What To Do
TTITLE4=When A Man Loves A Woman
TTITLE5=We'll Get Over
TTITLE6=Beautiful Feeling
TTITLE7=I Could Never Hate Her
TTITLE8=Never Alone
TTITLE9=No One Blinder (Than A Man Who Won't See)
TTITLE10=My Love Is Reserved
TTITLE11=1969 - I'm The One Who Loves You - B-Side Of Volt 4014
EXTD=
EXTT0=
EXTT1=
EXTT2=
EXTT3=
EXTT4=
EXTT5=
EXTT6=
EXTT7=
EXTT8=
EXTT9=
EXTT10=
EXTT11=
PLAYORDER=
